<svg width="67" height="49" viewBox="0 0 67 49" fill="none" xmlns="http://www.w3.org/2000/svg">
<path d="M66.018 46.5202C66.0176 46.5202 66.0172 46.5202 66.0168 46.5202L62.2609 46.5246L62.2569 43.3566C62.2562 42.8146 61.8166 42.3756 61.2747 42.3756C61.2743 42.3756 61.2739 42.3756 61.2735 42.3756C60.731 42.3762 60.2919 42.8165 60.2925 43.3589L60.2966 46.5268L45.6028 46.5438L45.5883 33.9576L55.7576 33.9458C56.2766 33.9452 56.7642 33.7427 57.1306 33.3755C57.497 33.0082 57.6984 32.5202 57.6977 32.0013L57.686 21.7397C57.6853 21.2208 57.4827 20.7331 57.1155 20.3668C56.7488 20.0011 56.2618 19.7997 55.7437 19.7997C55.743 19.7997 55.7422 19.7997 55.7412 19.7997L45.5718 19.8113L45.5671 15.7496L60.2608 15.7328L60.2872 38.9062C60.2878 39.4483 60.7273 39.8873 61.2693 39.8873H61.2705C61.8131 39.8866 62.2523 39.4465 62.2516 38.9041L62.2253 15.7306L64.1585 15.7284C65.6509 15.7263 66.8633 14.5107 66.8613 13.0191L66.8587 10.4429C66.8567 8.95095 65.6426 7.73868 64.152 7.73868C64.1508 7.73868 64.1493 7.73868 64.1483 7.73868L57.8571 7.74523C57.3147 7.74575 56.8753 8.18603 56.876 8.72845C56.8765 9.27062 57.3161 9.70958 57.8582 9.70958H57.8592L64.1506 9.70303H64.1516C64.5607 9.70303 64.8938 10.0359 64.8943 10.4453L64.897 13.0215C64.8975 13.4303 64.565 13.7635 64.156 13.764L45.5649 13.7851L45.5601 9.72412L53.4067 9.71482C53.9491 9.71417 54.3883 9.27389 54.3877 8.73147C54.387 8.18944 53.9474 7.75047 53.4055 7.75047C53.4051 7.75047 53.4047 7.75047 53.4043 7.75047L45.5579 7.75977L45.5525 3.14799C45.5518 2.4238 45.2689 1.74321 44.7562 1.23183C44.2443 0.721097 43.5644 0.440063 42.8413 0.440063C42.8403 0.440063 42.8391 0.440063 42.8382 0.440063L24.0523 0.461802C23.3281 0.462588 22.6475 0.745455 22.1362 1.25815C21.6248 1.77085 21.3435 2.45195 21.3444 3.17614L21.3498 7.78805L2.75821 7.80966C2.0352 7.81045 1.3558 8.09305 0.845196 8.60535C0.334988 9.11726 0.0544788 9.79732 0.0553955 10.5201L0.0582765 13.0966C0.0590623 13.8195 0.341405 14.4988 0.852923 15.0091C1.36379 15.5188 2.0424 15.7993 2.76398 15.7993H2.76738L4.7117 15.7971V18.7379C4.7117 19.2803 5.15145 19.7201 5.69387 19.7201C6.2363 19.7201 6.67605 19.2803 6.67605 18.7379V15.7948L21.3588 15.7777L21.3635 19.8392L11.1947 19.851C10.6757 19.8515 10.1882 20.0541 9.82176 20.4213C9.45535 20.7885 9.25393 21.2766 9.25459 21.7956L9.26638 32.0572C9.26703 32.5761 9.46962 33.0638 9.83682 33.4301C10.2035 33.7958 10.6905 33.9972 11.2086 33.9972H11.2111L21.38 33.9856L21.3945 46.5718L6.67618 46.5889V23.1905C6.67618 22.6481 6.23643 22.2084 5.694 22.2084C5.15158 22.2084 4.71183 22.6481 4.71183 23.1905V46.5912L0.981129 46.5955C0.438575 46.5962 -0.000654053 47.0365 7.31142e-07 47.5789C0.000655515 48.1209 0.440147 48.5599 0.982177 48.5599H0.983356L66.019 48.4846C66.5614 48.4839 67.0007 48.0437 67 47.5012C66.9993 46.9593 66.5599 46.5202 66.018 46.5202ZM55.7215 21.764L55.7333 31.9815L45.5859 31.9933L45.5742 21.7758L55.7215 21.764ZM2.76515 13.8351C2.76489 13.8351 2.76463 13.8351 2.76424 13.8351C2.56636 13.8351 2.3804 13.7582 2.24041 13.6186C2.10029 13.4788 2.02289 13.2927 2.02263 13.0944L2.01975 10.5178C2.01949 10.3193 2.09649 10.1327 2.23661 9.99205C2.37647 9.85167 2.56256 9.77427 2.76057 9.77401L21.352 9.75254L21.3567 13.8136L2.76515 13.8351ZM11.2309 32.0331L11.2191 21.8156L21.3659 21.8038L21.3777 32.0214L11.2309 32.0331ZM23.3086 3.17392C23.3084 2.97447 23.3859 2.78681 23.5268 2.64564C23.6677 2.50447 23.8551 2.42655 24.0545 2.42629L42.8404 2.40455H42.8413C43.2527 2.40455 43.5877 2.73901 43.5882 3.15048L43.6384 46.5463L41.1837 46.5492L41.1637 29.2284C41.1627 28.4004 40.8448 27.6215 40.2686 27.035C39.6879 26.4443 38.9153 26.1191 38.0923 26.1191C38.0912 26.1191 38.0898 26.1191 38.0887 26.1191L28.8616 26.1299C28.0373 26.1308 27.2639 26.4579 26.6839 27.0509C26.109 27.6386 25.7929 28.4182 25.7939 29.2464L25.8139 46.5671L23.3588 46.57L23.3086 3.17392ZM27.7583 29.2438C27.7579 28.9331 27.8751 28.642 28.0881 28.4242C28.2961 28.2116 28.5716 28.0942 28.8639 28.094L38.091 28.0832H38.0923C38.3841 28.0832 38.6594 28.1999 38.8675 28.4117C39.0811 28.629 39.1989 28.9198 39.1993 29.2304L39.2193 46.5511L27.7783 46.5644L27.7583 29.2438Z" fill="white"/>
</svg>
