<svg width="53" height="45" viewBox="0 0 53 45" fill="none" xmlns="http://www.w3.org/2000/svg">
<path d="M51.8903 27.8148L50.0487 25.9784C49.3935 25.324 48.5204 24.9636 47.59 24.9636C46.9951 24.9636 46.424 25.1116 45.9179 25.389L42.4474 21.9226L42.6164 21.7538C44.0244 20.3431 44.0238 18.0507 42.6163 16.6448C42.1134 16.1409 41.4857 15.8049 40.8016 15.6635C40.8958 15.3383 40.9454 14.9977 40.9454 14.6492C40.9454 13.6808 40.5692 12.7728 39.8883 12.0947C39.3852 11.5907 38.7577 11.2547 38.0736 11.1133C38.1678 10.7882 38.2173 10.4477 38.2173 10.0991C38.2173 9.13058 37.8412 8.22265 37.1591 7.54348C36.644 7.02901 36.0108 6.70335 35.3459 6.56474C35.7016 5.33839 35.3977 3.95863 34.4329 2.99221C33.6298 2.19255 32.5401 1.84888 31.49 1.96027L24.6129 0.658556C23.5641 0.459599 22.2543 0.328031 21.4275 1.08214C21.3753 1.12976 21.3221 1.18452 21.2698 1.24549C19.9878 0.77822 18.4926 1.05647 17.4661 2.0819C16.7851 2.7621 16.4099 3.66972 16.4099 4.63759C16.4099 4.98623 16.4593 5.3267 16.5534 5.65194C15.87 5.79324 15.2432 6.12884 14.7419 6.6311C14.0595 7.31068 13.6832 8.21727 13.6825 9.184C13.6822 9.53347 13.7318 9.87507 13.8264 10.2011C13.1426 10.3421 12.5154 10.6771 12.0126 11.1794C11.3302 11.861 10.9544 12.7692 10.9544 13.7365C10.9544 14.4775 11.1756 15.1834 11.5856 15.7796C11.068 15.9551 10.5939 16.2471 10.1969 16.6436C8.78806 18.0507 8.78754 20.3432 10.1978 21.756L10.3663 21.9237L6.89538 25.3882C5.60547 24.7809 4.01619 25.0084 2.95174 26.0715L1.10896 27.9091C0.453496 28.5638 0.0926404 29.437 0.0925369 30.368C0.0925369 31.299 0.453496 32.1723 1.10896 32.8271L3.40876 35.1241C3.8161 35.531 4.47622 35.5306 4.88303 35.1233C5.28995 34.7159 5.28954 34.0558 4.88221 33.649L2.5824 31.352C2.32133 31.0912 2.17755 30.7417 2.17755 30.3681C2.17755 29.9945 2.32133 29.6451 2.58178 29.385L4.42467 27.5473C4.8851 27.0873 5.58984 27.0188 6.12501 27.3388C6.16269 27.3954 6.20627 27.4492 6.25617 27.4992C6.3455 27.5888 6.44746 27.6574 6.55574 27.7076L17.124 38.2603C17.1742 38.3697 17.2431 38.4727 17.3331 38.5628C17.4206 38.6504 17.5205 38.7182 17.6265 38.7681C17.85 39.0208 17.9735 39.3436 17.9735 39.6879C17.9735 40.0616 17.8297 40.4109 17.5687 40.6717L15.7276 42.5105C15.1837 43.0521 14.2988 43.052 13.7565 42.5122L11.4567 40.2122C11.0496 39.8051 10.3895 39.8051 9.98242 40.2122C9.57529 40.6193 9.57529 41.2793 9.98242 41.6865L12.2839 43.9881C12.9613 44.6627 13.8509 44.9999 14.7409 44.9999C15.6312 44.9999 16.5218 44.6622 17.2 43.987L19.0422 42.147C19.6977 41.4923 20.0586 40.619 20.0586 39.6879C20.0586 39.0234 19.8739 38.3889 19.5303 37.8417L23.4366 33.9402C23.4407 33.9359 23.4448 33.9317 23.4491 33.9274C23.8964 33.465 25.142 33.5516 26.3466 33.6352C27.2025 33.6947 28.1567 33.7609 29.0889 33.6534L33.3666 37.926C33.0895 38.4313 32.9416 39.0017 32.9416 39.5956C32.9416 40.5257 33.3025 41.3985 33.958 42.0532L35.8003 43.8932C36.4553 44.5475 37.3285 44.908 38.2589 44.908C39.1891 44.908 40.0623 44.5476 40.7174 43.8932L51.891 32.7332C52.5465 32.0785 52.9074 31.2053 52.9074 30.2743C52.9073 29.3434 52.5464 28.4701 51.8903 27.8148ZM24.2247 2.70713L28.747 3.5631L26.0402 6.2689C25.6215 6.06766 25.0476 5.69231 24.418 5.09006C23.5562 4.26566 22.9398 3.31384 22.8837 2.72017C22.8836 2.71986 22.8836 2.71955 22.8836 2.71924C22.8836 2.71914 22.8835 2.71903 22.8835 2.71893C22.8794 2.67628 22.8784 2.64223 22.8789 2.61624C23.0152 2.58312 23.3773 2.54637 24.2247 2.70713ZM18.9394 3.5571C19.4676 3.02948 20.288 2.96861 20.8848 3.37274C21.223 4.79069 22.4326 6.07584 22.9767 6.59652C23.38 6.98243 24.6741 8.13942 25.9802 8.45742C26.1569 8.71073 26.2531 9.01268 26.2531 9.3313C26.2531 9.74174 26.0952 10.1255 25.8076 10.4128C25.5207 10.7002 25.1364 10.8584 24.7252 10.8584C24.314 10.8584 23.9296 10.7002 23.6414 10.4115L23.6413 10.4114L23.6408 10.4109L18.9393 5.71788C18.6527 5.43166 18.4948 5.04793 18.4948 4.63759C18.4949 4.22715 18.6528 3.84342 18.9394 3.5571ZM16.2153 8.1063C16.5021 7.81904 16.8861 7.66077 17.2966 7.66077C17.7077 7.66077 18.0929 7.81935 18.3816 8.10775L22.1673 11.886C22.7635 12.483 22.7635 13.4546 22.1694 14.0496C21.881 14.3369 21.4953 14.4951 21.0834 14.4951C20.6715 14.4951 20.2858 14.3369 19.9987 14.0509L19.9986 14.0508L17.1266 11.1794C17.1221 11.1749 17.1172 11.1708 17.1127 11.1662L16.2142 10.2681C15.9259 9.98014 15.7672 9.59568 15.7675 9.18555C15.7679 8.77677 15.9261 8.39428 16.2153 8.1063ZM13.486 12.6546C13.7731 12.3679 14.1578 12.2101 14.5696 12.2101C14.978 12.2101 15.3594 12.3657 15.6452 12.6473L18.5261 15.5268C18.8133 15.8129 18.9716 16.1963 18.9716 16.6062C18.9716 17.016 18.8133 17.3993 18.5249 17.6866C18.238 17.9731 17.8536 18.131 17.4426 18.131C17.0309 18.131 16.6453 17.9727 16.3579 17.6866L15.3136 16.6434C15.3134 16.6431 15.3131 16.6429 15.3129 16.6427L13.4861 14.8181C13.1981 14.5305 13.0395 14.1462 13.0395 13.7363C13.0395 13.3265 13.1981 12.9421 13.486 12.6546ZM11.6703 18.1187C11.9586 17.8308 12.3439 17.6722 12.7552 17.6722C13.1664 17.6722 13.5515 17.8307 13.8397 18.1184L14.8855 19.163C15.1729 19.4491 15.3311 19.8324 15.3311 20.2424C15.3311 20.6523 15.1728 21.0355 14.8834 21.3239C14.5965 21.6112 14.2122 21.7694 13.801 21.7694C13.3897 21.7694 13.0054 21.6113 12.7165 21.3218L12.5855 21.1914C12.5838 21.1896 12.5824 21.1878 12.5808 21.1861C12.5788 21.1843 12.5767 21.1826 12.5748 21.1807L11.6714 20.2809C11.0752 19.6835 11.0747 18.7136 11.6703 18.1187ZM32.9153 29.9669C32.5084 29.5595 31.8482 29.5592 31.441 29.966L30.5135 30.8924C29.6322 31.7737 28.0352 31.6627 26.4909 31.5556C24.8138 31.439 23.0796 31.3187 21.9574 32.4709L18.1175 36.3061L8.51509 26.7178L11.9133 23.3257C12.475 23.67 13.1231 23.8545 13.8012 23.8545C14.77 23.8545 15.6785 23.479 16.357 22.7992C17.0401 22.1189 17.4164 21.211 17.4164 20.2425C17.4164 20.2335 17.4158 20.2246 17.4158 20.2156C17.4248 20.2157 17.4338 20.2162 17.4428 20.2162C18.4102 20.2162 19.318 19.8418 19.9975 19.1631C20.6806 18.4828 21.0568 17.5748 21.0568 16.6064C21.0568 16.5974 21.0562 16.5885 21.0562 16.5795C21.0653 16.5795 21.0744 16.5801 21.0836 16.5801C22.0508 16.5801 22.959 16.2061 23.6431 15.5248C24.3532 14.8136 24.7044 13.8772 24.6977 12.9428C24.707 12.9429 24.7163 12.9434 24.7256 12.9434C25.6944 12.9433 26.6028 12.5678 27.2824 11.887C27.9634 11.2068 28.3385 10.2992 28.3385 9.3313C28.3385 8.65441 28.1545 8.00734 27.8113 7.4468L30.7898 4.46959C31.0117 4.24858 31.2854 4.10987 31.5723 4.05263C31.6033 4.04931 31.634 4.04434 31.6643 4.03834C32.1245 3.97489 32.6078 4.11691 32.9598 4.46741C33.5559 5.0646 33.5559 6.03619 32.962 6.6312L32.0548 7.53458C32.0518 7.53758 32.0486 7.54028 32.0456 7.54328L31.0009 8.5863C30.5934 8.99312 30.593 9.65324 30.9999 10.0606C31.4069 10.468 32.067 10.4683 32.4742 10.0615L33.3849 9.15201C33.3851 9.15181 33.3853 9.1516 33.3855 9.15139L33.5232 9.01423C34.121 8.42192 35.0895 8.42316 35.6867 9.01951C35.9741 9.30563 36.1323 9.68895 36.1323 10.0989C36.1323 10.5087 35.9741 10.892 35.6844 11.1804L34.7721 12.0945C34.772 12.0947 34.7719 12.0948 34.7718 12.095L33.7271 13.1354C33.3192 13.5417 33.3178 14.2018 33.7241 14.6097C34.1304 15.0176 34.7905 15.0189 35.1984 14.6127L36.2479 13.5675C36.5347 13.2801 36.919 13.1219 37.3302 13.1219C37.7415 13.1219 38.1259 13.2801 38.4148 13.5695C38.7022 13.8558 38.8604 14.2391 38.8604 14.649C38.8604 15.0588 38.7022 15.4421 38.4132 15.7299L36.5944 17.5494C36.1874 17.9566 36.1875 18.6167 36.5946 19.0237C36.7982 19.2272 37.0649 19.3288 37.3317 19.3288C37.5985 19.3288 37.8654 19.227 38.0689 19.0234L38.9603 18.1317C38.9653 18.1268 38.9708 18.1226 38.9759 18.1175C39.2627 17.8301 39.6471 17.672 40.0583 17.672C40.4695 17.672 40.8539 17.8301 41.1418 18.1185C41.7373 18.7134 41.7368 19.6834 41.1418 20.2794L40.2355 21.1847C40.2352 21.185 40.2348 21.1853 40.2344 21.1856C40.2341 21.1859 40.2338 21.1863 40.2335 21.1866L38.7951 22.6233C38.3877 23.0302 38.3873 23.6904 38.7941 24.0977C38.9977 24.3015 39.2648 24.4035 39.5318 24.4035C39.7983 24.4035 40.065 24.3018 40.2685 24.0986L40.9721 23.3959L44.3443 26.7642L34.7427 36.3541L31.3025 32.918C31.5423 32.7637 31.7718 32.5824 31.9873 32.3669L32.9142 31.4411C33.3218 31.0344 33.3222 30.3743 32.9153 29.9669ZM50.4175 31.258L39.2439 42.418C38.9825 42.6791 38.6326 42.8228 38.2587 42.8228C37.8848 42.8228 37.535 42.6791 37.2735 42.4179L35.4312 40.5779C35.1702 40.3173 35.0264 39.9684 35.0264 39.5956C35.0264 39.223 35.1702 38.8741 35.4312 38.6134L46.6048 27.4534C46.8663 27.1922 47.2161 27.0484 47.5901 27.0484C47.964 27.0484 48.3138 27.1922 48.5759 27.454L50.4176 29.2905C50.6787 29.5512 50.8224 29.9005 50.8224 30.2742C50.8223 30.648 50.6786 30.9973 50.4175 31.258Z" fill="white"/>
</svg>
