<svg width="46" height="51" viewBox="0 0 46 51" fill="none" xmlns="http://www.w3.org/2000/svg">
<path d="M10.3108 39.0292L15.7205 48.3997C16.8879 50.4239 19.5138 51.1734 21.5905 49.9728C23.6454 48.7853 24.3516 46.1598 23.1628 44.1032L19.9402 38.5206L22.731 36.9093C23.2447 36.6122 23.4209 35.9555 23.1242 35.4419L21.7273 33.0224C21.8939 32.9901 22.9891 32.7753 42.3028 28.9865C44.6904 28.8569 46.1209 26.2456 44.9149 24.158L41.3448 17.9745L43.6263 14.519C43.8504 14.1791 43.8638 13.7423 43.6603 13.3898L41.5118 9.66864C41.3083 9.31616 40.9218 9.10971 40.5169 9.13363L36.3841 9.38162L32.4208 2.51669C31.8468 1.5222 30.8183 0.920052 29.6702 0.905785C29.6564 0.905365 29.643 0.905365 29.6291 0.905365C28.5197 0.905365 27.5126 1.45758 26.9159 2.39123L12.8831 20.2677L3.76017 25.5348C0.172026 27.6056 -1.07088 32.2088 1.0079 35.8066C2.90709 39.0964 6.91107 40.3905 10.3108 39.0292ZM21.3027 45.1779C21.896 46.2043 21.5448 47.5177 20.5155 48.1122C19.4828 48.7094 18.1677 48.3426 17.5811 47.3259L12.21 38.0217L15.9312 35.8733C22.1474 46.6415 21.2028 45.0054 21.3027 45.1779ZM18.866 36.6596L17.7917 34.7991L19.6523 33.7248L20.7265 35.5854L18.866 36.6596ZM39.9832 11.3177L41.4678 13.8891L40.1439 15.8941L37.5851 11.4617L39.9832 11.3177ZM28.7127 3.56909C29.001 3.09744 29.4583 3.04877 29.6438 3.0538C29.8272 3.0559 30.2841 3.11297 30.5598 3.59049L43.0543 25.2322C43.4614 25.9368 42.9666 26.8226 42.1505 26.8427C42.004 26.8461 41.9365 26.8725 41.5613 26.9426L28.3447 4.05039C28.622 3.69372 28.6577 3.65931 28.7127 3.56909ZM26.915 5.87153L39.3328 27.3798L20.5918 31.0557L14.8934 21.1859L26.915 5.87153ZM2.86848 34.7323C2.39683 33.9162 2.14758 32.9897 2.14758 32.0523C2.14758 30.1363 3.17732 28.3521 4.83439 27.3953L13.207 22.5614L18.5781 31.8643L10.2055 36.6987C7.64036 38.1791 4.34931 37.297 2.86848 34.7323Z" fill="#24B9EC"/>
</svg>
