<svg width="53" height="53" viewBox="0 0 53 53" fill="none" xmlns="http://www.w3.org/2000/svg">
<path d="M18.1759 26.1704C17.7956 25.9628 17.3195 26.1028 17.1119 26.4828L14.6311 31.0267L11.6122 25.4971C11.4747 25.2453 11.2108 25.0887 10.924 25.0887C10.6372 25.0887 10.3733 25.2453 10.2359 25.4969L5.65338 33.8901C5.65265 33.8914 5.65193 33.8927 5.6512 33.894L4.24049 36.4778C4.03294 36.8579 4.17289 37.3342 4.5529 37.5416C4.67225 37.6068 4.80092 37.6377 4.92794 37.6377C5.20546 37.6377 5.4744 37.49 5.61673 37.2292L6.53243 35.5521L7.44264 36.4624C7.74884 36.7686 8.2452 36.7686 8.5514 36.4624L9.04237 35.9714L10.3697 37.2987C10.5228 37.4518 10.7234 37.5283 10.924 37.5283C10.9802 37.5283 11.0362 37.5216 11.0914 37.5096L5.94984 46.9267C5.7424 47.3068 5.88225 47.783 6.26225 47.9905C6.38161 48.0557 6.51028 48.0865 6.63729 48.0865C6.91482 48.0865 7.18375 47.9388 7.32609 47.6781L18.4882 27.234C18.6958 26.8542 18.5559 26.378 18.1759 26.1704ZM12.2514 34.3085L10.9241 35.6358L9.5968 34.3085C9.29061 34.0023 8.79425 34.0023 8.48805 34.3085L7.99707 34.7995L7.31563 34.118L10.9241 27.5089L13.7378 32.6628L12.9567 34.0936C12.7093 34.0452 12.4431 34.1168 12.2514 34.3085Z" fill="#24B9EC"/>
<path d="M3.54902 39.3806C3.16891 39.173 2.69264 39.313 2.48519 39.693L0.0960506 44.0688C-0.111498 44.4489 0.028455 44.9252 0.408461 45.1326C0.527711 45.1979 0.656484 45.2287 0.783498 45.2287C1.06102 45.2287 1.32996 45.081 1.47229 44.8202L3.86143 40.4444C4.06898 40.0644 3.92903 39.5881 3.54902 39.3806Z" fill="#24B9EC"/>
<path d="M52.9039 39.7829L47.3485 29.6079C47.3479 29.6069 47.3474 29.606 47.3469 29.605L45.7579 26.6947C45.5504 26.3146 45.0741 26.1747 44.6941 26.3823C44.314 26.5898 44.1742 27.066 44.3816 27.4461L45.6842 29.832L45.0028 30.5134L44.5118 30.0224C44.2055 29.7162 43.7093 29.7162 43.403 30.0224L42.0758 31.3497L40.7486 30.0224C40.4423 29.7162 39.9461 29.7162 39.6397 30.0224L39.1488 30.5134L38.467 29.8315L42.0757 23.2227L42.623 24.225C42.8304 24.605 43.3066 24.7449 43.6868 24.5376C44.0669 24.3301 44.2068 23.8537 43.9993 23.4737L42.764 21.2111C42.6266 20.9593 42.3626 20.8027 42.0758 20.8027C41.789 20.8027 41.5252 20.9593 41.3876 21.211L37.1983 28.8829L27.2839 10.7239V8.04938H35.49C35.7803 8.04938 36.0467 7.88913 36.1826 7.63273C36.3187 7.37632 36.3019 7.06587 36.1391 6.82561L34.2417 4.02469L36.1391 1.22376C36.3019 0.983502 36.3187 0.673059 36.1826 0.41665C36.0466 0.160346 35.7802 0 35.49 0H26.5C26.067 0 25.716 0.351021 25.716 0.784027V10.7239L18.8652 23.2716C18.6578 23.6517 18.7976 24.1279 19.1776 24.3354C19.5579 24.5431 20.034 24.4031 20.2414 24.023L22.1083 20.6036L23.0186 21.5139C23.3248 21.8201 23.8211 21.8201 24.1273 21.5139L24.6183 21.0229L25.9456 22.3502C26.0987 22.5033 26.2993 22.5798 26.4999 22.5798C26.7005 22.5798 26.9012 22.5032 27.0543 22.3502L28.3815 21.0229L28.8725 21.5139C29.1788 21.8201 29.675 21.8201 29.9813 21.5139L30.8915 20.6036L45.6736 47.6783C45.816 47.939 46.0848 48.0867 46.3625 48.0867C46.4894 48.0867 46.6182 48.0558 46.7374 47.9907C47.1175 47.7832 47.2574 47.307 47.0499 46.9268L39.1212 32.4048C39.331 32.4122 39.5431 32.3366 39.7032 32.1765L40.1942 31.6855L41.5214 33.0128C41.6745 33.1659 41.8752 33.2424 42.0758 33.2424C42.2764 33.2424 42.4771 33.1658 42.6302 33.0128L43.9574 31.6855L44.4484 32.1765C44.7547 32.4827 45.2509 32.4827 45.5572 32.1765L46.4674 31.2663L51.5276 40.5342C51.67 40.795 51.9389 40.9427 52.2165 40.9427C52.3434 40.9427 52.4722 40.9118 52.5914 40.8466C52.9715 40.6393 53.1114 40.163 52.9039 39.7829ZM32.6457 4.46453L34.0119 6.48142H27.2839V1.56816H34.0119L32.6457 3.58506C32.4658 3.85057 32.4658 4.1989 32.6457 4.46453ZM29.427 19.8508L28.936 19.3598C28.6297 19.0536 28.1335 19.0536 27.8272 19.3598L26.5 20.6871L25.1727 19.3598C24.8665 19.0536 24.3702 19.0536 24.064 19.3598L23.573 19.8508L22.8915 19.1693L26.5 12.5602L30.1084 19.1693L29.427 19.8508Z" fill="#24B9EC"/>
<path d="M31.2234 34.497H33.1903C33.4943 34.497 33.7709 34.3213 33.9001 34.046C34.0293 33.7708 33.9876 33.4457 33.7932 33.2119L27.1029 25.1626C26.9539 24.9834 26.733 24.8797 26.5 24.8797C26.267 24.8797 26.046 24.9833 25.8971 25.1626L19.2068 33.2119C19.0124 33.4457 18.9708 33.7708 19.0999 34.046C19.229 34.3213 19.5056 34.497 19.8097 34.497H21.7766L16.343 51.9832C16.2691 52.2212 16.3127 52.4801 16.4604 52.6808C16.6081 52.8815 16.8425 52.9999 17.0918 52.9999H35.9082C36.1574 52.9999 36.3919 52.8815 36.5396 52.6808C36.6874 52.4802 36.7309 52.2212 36.657 51.9832L31.2234 34.497ZM18.1563 51.4319L23.5899 33.9457C23.6638 33.7077 23.6202 33.4488 23.4725 33.2481C23.3248 33.0474 23.0904 32.929 22.8411 32.929H21.4807L26.5 26.8903L31.5192 32.929H30.1588C29.9096 32.929 29.6751 33.0474 29.5274 33.2481C29.3796 33.4487 29.3361 33.7077 29.41 33.9457L34.8436 51.4319H18.1563Z" fill="#24B9EC"/>
</svg>
