<svg width="46" height="46" viewBox="0 0 46 46" fill="none" xmlns="http://www.w3.org/2000/svg">
<path d="M19.25 29H20.75V30.5H19.25V29Z" fill="#1C6A85"/>
<path d="M22.25 29H23.75V30.5H22.25V29Z" fill="#1C6A85"/>
<path d="M25.25 29H26.75V30.5H25.25V29Z" fill="#1C6A85"/>
<path d="M19.25 32H20.75V33.5H19.25V32Z" fill="#1C6A85"/>
<path d="M22.25 32H23.75V33.5H22.25V32Z" fill="#1C6A85"/>
<path d="M25.25 32H26.75V33.5H25.25V32Z" fill="#1C6A85"/>
<path d="M19.25 35H20.75V36.5H19.25V35Z" fill="#1C6A85"/>
<path d="M22.25 35H23.75V36.5H22.25V35Z" fill="#1C6A85"/>
<path d="M25.25 35H26.75V36.5H25.25V35Z" fill="#1C6A85"/>
<path d="M19.25 23H20.75V24.5H19.25V23Z" fill="#1C6A85"/>
<path d="M22.25 23H23.75V24.5H22.25V23Z" fill="#1C6A85"/>
<path d="M25.25 23H26.75V24.5H25.25V23Z" fill="#1C6A85"/>
<path d="M19.25 26H20.75V27.5H19.25V26Z" fill="#1C6A85"/>
<path d="M22.25 26H23.75V27.5H22.25V26Z" fill="#1C6A85"/>
<path d="M25.25 26H26.75V27.5H25.25V26Z" fill="#1C6A85"/>
<path d="M15.6752 6.72882L18.7937 9.76857L18.0575 14.0607C18.0338 14.1987 18.0492 14.3405 18.102 14.4701C18.1547 14.5998 18.2426 14.7121 18.3559 14.7943C18.4691 14.8766 18.6031 14.9256 18.7427 14.9356C18.8823 14.9457 19.0219 14.9165 19.1458 14.8514L23 12.8249L26.8546 14.8514C26.9785 14.9165 27.1182 14.9457 27.2577 14.9356C27.3973 14.9256 27.5313 14.8766 27.6446 14.7943C27.7578 14.7121 27.8457 14.5998 27.8985 14.4701C27.9512 14.3405 27.9666 14.1987 27.9429 14.0607L27.2067 9.76857L30.3256 6.72882C30.4258 6.63113 30.4967 6.50735 30.5302 6.37148C30.5638 6.2356 30.5586 6.09305 30.5154 5.95995C30.4721 5.82684 30.3925 5.7085 30.2855 5.61829C30.1785 5.52808 30.0484 5.46962 29.9099 5.4495L25.6003 4.82335L23.673 0.918097C23.611 0.792597 23.5152 0.68693 23.3964 0.613043C23.2775 0.539157 23.1403 0.5 23.0004 0.5C22.8604 0.5 22.7233 0.539157 22.6044 0.613043C22.4856 0.68693 22.3898 0.792597 22.3278 0.918097L20.4005 4.82335L16.0906 5.4495C15.9521 5.46962 15.822 5.52808 15.715 5.61829C15.608 5.7085 15.5284 5.82684 15.4851 5.95995C15.4419 6.09305 15.4367 6.2356 15.4703 6.37148C15.5038 6.50735 15.5747 6.63113 15.675 6.72882H15.6752ZM21.0064 6.25069C21.1268 6.23319 21.241 6.1867 21.3394 6.11521C21.4378 6.04373 21.5173 5.9494 21.5711 5.84035L23 2.94478L24.4293 5.84072C24.4831 5.94977 24.5626 6.0441 24.661 6.11559C24.7594 6.18707 24.8737 6.23357 24.994 6.25107L28.1899 6.71541L25.8781 8.96972C25.7911 9.05461 25.726 9.15939 25.6884 9.27503C25.6508 9.39068 25.642 9.51372 25.6625 9.63357L26.2084 12.8166L23.3499 11.3138C23.2423 11.2572 23.1225 11.2276 23.0009 11.2276C22.8793 11.2276 22.7595 11.2572 22.6518 11.3138L19.7933 12.8166L20.3392 9.63357C20.3598 9.51372 20.3509 9.39068 20.3133 9.27503C20.2758 9.15939 20.2106 9.05461 20.1236 8.96972L17.8105 6.71569L21.0064 6.25069Z" fill="#1C6A85"/>
<path d="M29.7868 12.6962C29.7435 12.8293 29.7384 12.9718 29.7719 13.1077C29.8054 13.2435 29.8763 13.3673 29.9765 13.465L32.0532 15.4892L31.5629 18.3476C31.5393 18.4855 31.5547 18.6273 31.6074 18.757C31.6601 18.8866 31.7481 18.9989 31.8613 19.0812C31.9745 19.1635 32.1085 19.2124 32.2481 19.2225C32.3877 19.2326 32.5273 19.2034 32.6512 19.1383L35.2182 17.7887L37.7851 19.1383C37.909 19.2034 38.0486 19.2325 38.1882 19.2224C38.3278 19.2123 38.4618 19.1634 38.575 19.0811C38.6882 18.9989 38.7761 18.8866 38.8288 18.7569C38.8816 18.6273 38.897 18.4855 38.8733 18.3476L38.383 15.4892L40.4597 13.465C40.56 13.3673 40.6308 13.2435 40.6644 13.1076C40.6979 12.9718 40.6928 12.8292 40.6495 12.6961C40.6063 12.563 40.5267 12.4446 40.4197 12.3544C40.3127 12.2642 40.1825 12.2058 40.044 12.1857L37.1742 11.7688L35.8906 9.16812C35.8287 9.04265 35.7329 8.93701 35.614 8.86314C35.4952 8.78927 35.358 8.75012 35.2181 8.75012C35.0782 8.75012 34.941 8.78927 34.8222 8.86314C34.7034 8.93701 34.6075 9.04265 34.5456 9.16812L33.2621 11.7688L30.3922 12.1858C30.2537 12.206 30.1236 12.2644 30.0166 12.3546C29.9096 12.4448 29.83 12.5631 29.7868 12.6962ZM33.868 13.1965C33.9883 13.179 34.1026 13.1325 34.201 13.0611C34.2994 12.9896 34.3789 12.8953 34.4327 12.7862L35.2182 11.1947L36.0036 12.7862C36.0574 12.8953 36.1369 12.9896 36.2353 13.061C36.3337 13.1325 36.4479 13.179 36.5683 13.1965L38.3245 13.4517L37.0537 14.6905C36.9666 14.7754 36.9015 14.8801 36.864 14.9958C36.8264 15.1114 36.8175 15.2345 36.8381 15.3543L37.1381 17.1035L35.5672 16.2776C35.4596 16.221 35.3398 16.1914 35.2182 16.1914C35.0966 16.1914 34.9769 16.221 34.8692 16.2776L33.2984 17.1035L33.5984 15.3543C33.6189 15.2345 33.61 15.1114 33.5725 14.9958C33.5349 14.8801 33.4698 14.7754 33.3827 14.6905L32.1118 13.4517L33.868 13.1965Z" fill="#1C6A85"/>
<path d="M38.1708 20.8588C38.0323 20.8789 37.9022 20.9374 37.7953 21.0276C37.6883 21.1178 37.6087 21.2361 37.5654 21.3692C37.5222 21.5023 37.5171 21.6448 37.5506 21.7807C37.5841 21.9166 37.655 22.0403 37.7552 22.138L39.0907 23.4398L38.7754 25.2782C38.7517 25.4162 38.7671 25.558 38.8198 25.6876C38.8726 25.8172 38.9605 25.9295 39.0737 26.0118C39.1869 26.0941 39.3209 26.143 39.4605 26.1531C39.6001 26.1632 39.7397 26.134 39.8635 26.0689L41.5143 25.2011L43.165 26.0689C43.2889 26.134 43.4285 26.1632 43.5681 26.153C43.7076 26.1429 43.8416 26.094 43.9548 26.0117C44.068 25.9295 44.1559 25.8172 44.2086 25.6876C44.2614 25.5579 44.2768 25.4162 44.2531 25.2782L43.9378 23.4402L45.2735 22.1376C45.3737 22.0399 45.4445 21.9162 45.4781 21.7803C45.5116 21.6444 45.5065 21.5019 45.4632 21.3688C45.42 21.2357 45.3403 21.1174 45.2334 21.0272C45.1264 20.937 44.9963 20.8785 44.8578 20.8584L43.0122 20.5907L42.1872 18.9183C42.1253 18.7928 42.0295 18.6872 41.9106 18.6133C41.7918 18.5394 41.6546 18.5002 41.5147 18.5002C41.3747 18.5002 41.2376 18.5394 41.1187 18.6133C40.9999 18.6872 40.904 18.7928 40.8421 18.9183L40.0171 20.5907L38.1708 20.8588ZM41.1875 21.608L41.5148 20.9448L41.8421 21.608C41.8959 21.717 41.9753 21.8113 42.0736 21.8827C42.1719 21.9542 42.286 22.0007 42.4062 22.0183L43.1381 22.1247L42.6085 22.6409C42.5215 22.7258 42.4563 22.8306 42.4188 22.9462C42.3812 23.0619 42.3723 23.185 42.3929 23.3048L42.518 24.0337L41.8633 23.6896C41.7557 23.633 41.6359 23.6034 41.5143 23.6034C41.3928 23.6034 41.273 23.633 41.1654 23.6896L40.5107 24.0337L40.6357 23.3048C40.6563 23.185 40.6474 23.0619 40.6098 22.9462C40.5722 22.8306 40.5071 22.7258 40.42 22.6409L39.8905 22.1247L40.6224 22.0183C40.7428 22.0008 40.8572 21.9544 40.9556 21.8829C41.0541 21.8114 41.1336 21.7171 41.1875 21.608Z" fill="#1C6A85"/>
<path d="M5.54027 13.4651L7.61702 15.4893L7.12671 18.3477C7.10305 18.4856 7.11845 18.6274 7.17117 18.757C7.22389 18.8867 7.31182 18.999 7.42503 19.0812C7.53825 19.1635 7.67222 19.2124 7.81179 19.2225C7.95137 19.2326 8.09099 19.2035 8.21486 19.1384L10.7818 17.7888L13.3488 19.1384C13.4727 19.2035 13.6123 19.2327 13.7519 19.2226C13.8915 19.2125 14.0255 19.1636 14.1387 19.0813C14.2519 18.999 14.3399 18.8867 14.3926 18.7571C14.4453 18.6274 14.4607 18.4856 14.4371 18.3477L13.9468 15.4893L16.0235 13.4651C16.1237 13.3674 16.1946 13.2436 16.2282 13.1078C16.2617 12.9719 16.2566 12.8293 16.2133 12.6962C16.1701 12.5631 16.0904 12.4448 15.9834 12.3546C15.8764 12.2644 15.7463 12.2059 15.6078 12.1858L12.7379 11.7689L11.4544 9.16825C11.3925 9.04277 11.2966 8.93713 11.1778 8.86326C11.059 8.78939 10.9218 8.75024 10.7819 8.75024C10.6419 8.75024 10.5048 8.78939 10.386 8.86326C10.2671 8.93713 10.1713 9.04277 10.1094 9.16825L8.82583 11.7689L5.95624 12.1858C5.81774 12.2059 5.68763 12.2644 5.58062 12.3546C5.47362 12.4448 5.39399 12.5631 5.35074 12.6962C5.30749 12.8293 5.30234 12.9719 5.33589 13.1078C5.36943 13.2436 5.44033 13.3674 5.54055 13.4651H5.54027ZM9.43174 13.1965C9.55206 13.179 9.66633 13.1325 9.7647 13.0611C9.86306 12.9896 9.94258 12.8953 9.9964 12.7862L10.7818 11.1947L11.5673 12.7862C11.6211 12.8953 11.7006 12.9896 11.799 13.0611C11.8974 13.1325 12.0117 13.179 12.132 13.1965L13.8882 13.4517L12.6175 14.6905C12.5304 14.7754 12.4653 14.8802 12.4277 14.9958C12.3902 15.1115 12.3813 15.2345 12.4018 15.3543L12.7018 17.1035L11.131 16.2776C11.0233 16.2211 10.9036 16.1915 10.782 16.1915C10.6604 16.1915 10.5406 16.2211 10.433 16.2776L8.86249 17.1032L9.16249 15.3541C9.18305 15.2342 9.17417 15.1112 9.13661 14.9955C9.09904 14.8799 9.03393 14.7751 8.94686 14.6902L7.67552 13.4517L9.43174 13.1965Z" fill="#1C6A85"/>
<path d="M0.726504 22.1376L2.06197 23.4398L1.74688 25.2782C1.7232 25.4162 1.7386 25.558 1.79132 25.6877C1.84405 25.8173 1.932 25.9296 2.04522 26.0119C2.15845 26.0941 2.29244 26.1431 2.43203 26.1532C2.57162 26.1633 2.71125 26.1341 2.83513 26.0689L4.48588 25.2011L6.13663 26.0689C6.2605 26.134 6.40009 26.1631 6.53964 26.153C6.67919 26.1429 6.81312 26.0939 6.9263 26.0117C7.03948 25.9294 7.1274 25.8171 7.18011 25.6875C7.23283 25.5579 7.24823 25.4162 7.2246 25.2782L6.90932 23.4398L8.24479 22.1376C8.34498 22.0399 8.41585 21.9162 8.44939 21.7803C8.48292 21.6445 8.47778 21.5019 8.43454 21.3689C8.3913 21.2358 8.3117 21.1174 8.20472 21.0272C8.09775 20.937 7.96767 20.8785 7.82919 20.8584L5.98354 20.5907L5.15854 18.9183C5.0966 18.7928 5.00079 18.6872 4.88194 18.6133C4.76308 18.5394 4.62592 18.5002 4.48597 18.5002C4.34602 18.5002 4.20887 18.5394 4.09001 18.6133C3.97115 18.6872 3.87534 18.7928 3.81341 18.9183L2.98841 20.5907L1.14219 20.8588C1.00379 20.879 0.873781 20.9374 0.766861 21.0276C0.659942 21.1178 0.580369 21.2361 0.537132 21.3691C0.493894 21.5021 0.488715 21.6446 0.522178 21.7804C0.555642 21.9162 0.626416 22.0399 0.726504 22.1376ZM3.59375 22.0183C3.71408 22.0008 3.82835 21.9543 3.92671 21.8828C4.02508 21.8114 4.1046 21.7171 4.15841 21.608L4.48579 20.9448L4.81307 21.608C4.86688 21.7171 4.9464 21.8114 5.04476 21.8828C5.14313 21.9543 5.2574 22.0008 5.37772 22.0183L6.10963 22.1247L5.58013 22.6409C5.49305 22.7258 5.42793 22.8306 5.39036 22.9462C5.3528 23.0619 5.34392 23.185 5.3645 23.3048L5.48947 24.0337L4.83482 23.6896C4.72719 23.633 4.60742 23.6034 4.48583 23.6034C4.36424 23.6034 4.24447 23.633 4.13685 23.6896L3.48219 24.0337L3.60725 23.3048C3.62783 23.185 3.61896 23.0619 3.5814 22.9462C3.54383 22.8306 3.47871 22.7258 3.39163 22.6409L2.86204 22.1247L3.59375 22.0183Z" fill="#1C6A85"/>
<path d="M12.5 26H14.75V27.5H12.5V26Z" fill="#1C6A85"/>
<path d="M12.5 29.75H14.75V31.25H12.5V29.75Z" fill="#1C6A85"/>
<path d="M12.5 33.5H14.75V35H12.5V33.5Z" fill="#1C6A85"/>
<path d="M12.5 37.25H14.75V38.75H12.5V37.25Z" fill="#1C6A85"/>
<path d="M42.5 35.75H41C40.2046 35.7509 39.4421 36.0673 38.8797 36.6297C38.3173 37.1921 38.0009 37.9546 38 38.75V40.2944C37.4592 40.3807 36.9458 40.5912 36.5 40.9093V37.25H35V41H29.75V23.75H35V35.75H36.5V23C36.5 22.8011 36.421 22.6103 36.2803 22.4697C36.1397 22.329 35.9489 22.25 35.75 22.25H29.75V18.5C29.75 18.3011 29.671 18.1103 29.5303 17.9697C29.3897 17.829 29.1989 17.75 29 17.75H26.75V16.25C26.75 16.0511 26.671 15.8603 26.5303 15.7197C26.3897 15.579 26.1989 15.5 26 15.5H20C19.8011 15.5 19.6103 15.579 19.4697 15.7197C19.329 15.8603 19.25 16.0511 19.25 16.25V17.75H17C16.8011 17.75 16.6103 17.829 16.4697 17.9697C16.329 18.1103 16.25 18.3011 16.25 18.5V22.25H10.25C10.0511 22.25 9.86032 22.329 9.71967 22.4697C9.57902 22.6103 9.5 22.8011 9.5 23V27.5H11V23.75H16.25V41H11V29H9.5V40.9093C9.05422 40.5912 8.54079 40.3807 8 40.2944V38.75C7.99911 37.9546 7.68275 37.1921 7.12033 36.6297C6.55792 36.0673 5.79538 35.7509 5 35.75H3.5C2.70462 35.7509 1.94208 36.0673 1.37967 36.6297C0.817251 37.1921 0.500893 37.9546 0.5 38.75V44.75C0.5 44.9489 0.579018 45.1397 0.71967 45.2803C0.860322 45.421 1.05109 45.5 1.25 45.5H44.75C44.9489 45.5 45.1397 45.421 45.2803 45.2803C45.421 45.1397 45.5 44.9489 45.5 44.75V38.75C45.4991 37.9546 45.1827 37.1921 44.6203 36.6297C44.0579 36.0673 43.2954 35.7509 42.5 35.75ZM20.75 17H25.25V20H20.75V17ZM2 38.75C2.00047 38.3523 2.15866 37.9711 2.43986 37.6899C2.72106 37.4087 3.10232 37.2505 3.5 37.25H5C5.39768 37.2505 5.77894 37.4087 6.06014 37.6899C6.34134 37.9711 6.49953 38.3523 6.5 38.75V40.2944C5.66375 40.4293 4.90275 40.8573 4.35313 41.5019C3.8035 42.1464 3.5011 42.9654 3.5 43.8125V44H2V38.75ZM5 44V43.8125C5.00062 43.2657 5.21812 42.7414 5.60478 42.3548C5.99144 41.9681 6.51568 41.7506 7.0625 41.75H7.4375C7.98432 41.7506 8.50856 41.9681 8.89522 42.3548C9.28188 42.7414 9.49938 43.2657 9.5 43.8125V44H5ZM11 42.5H16.25V44H11V42.5ZM17.75 19.25H19.25V20.75C19.25 20.9489 19.329 21.1397 19.4697 21.2803C19.6103 21.421 19.8011 21.5 20 21.5H26C26.1989 21.5 26.3897 21.421 26.5303 21.2803C26.671 21.1397 26.75 20.9489 26.75 20.75V19.25H28.25V44H26V38.75C26 38.5511 25.921 38.3603 25.7803 38.2197C25.6397 38.079 25.4489 38 25.25 38H20.75C20.5511 38 20.3603 38.079 20.2197 38.2197C20.079 38.3603 20 38.5511 20 38.75V44H17.75V19.25ZM21.5 44V39.5H24.5V44H21.5ZM29.75 42.5H35V44H29.75V42.5ZM36.5 44V43.8125C36.5006 43.2657 36.7181 42.7414 37.1048 42.3548C37.4914 41.9681 38.0157 41.7506 38.5625 41.75H38.9375C39.4843 41.7506 40.0086 41.9681 40.3952 42.3548C40.7819 42.7414 40.9994 43.2657 41 43.8125V44H36.5ZM44 44H42.5V43.8125C42.4989 42.9654 42.1965 42.1464 41.6469 41.5019C41.0972 40.8573 40.3363 40.4293 39.5 40.2944V38.75C39.5005 38.3523 39.6587 37.9711 39.9399 37.6899C40.2211 37.4087 40.6023 37.2505 41 37.25H42.5C42.8977 37.2505 43.2789 37.4087 43.5601 37.6899C43.8413 37.9711 43.9995 38.3523 44 38.75V44Z" fill="#1C6A85"/>
<path d="M31.25 33.5H33.5V35H31.25V33.5Z" fill="#1C6A85"/>
<path d="M31.25 37.25H33.5V38.75H31.25V37.25Z" fill="#1C6A85"/>
<path d="M31.25 26H33.5V27.5H31.25V26Z" fill="#1C6A85"/>
<path d="M31.25 29.75H33.5V31.25H31.25V29.75Z" fill="#1C6A85"/>
</svg>
