<svg width="47" height="43" viewBox="0 0 47 43" fill="none" xmlns="http://www.w3.org/2000/svg">
<path d="M20.4789 18.174C20.3461 18.5279 19.948 18.7049 19.5916 18.5721C19.2377 18.4368 19.0607 18.0387 19.1934 17.6822L21.8164 10.8022C21.9388 10.4769 22.2588 10.2635 22.6049 10.2635C22.951 10.2635 23.271 10.4769 23.3933 10.8048L25.9903 17.6875C26.123 18.0414 25.9434 18.4369 25.5896 18.5722C25.2357 18.705 24.8376 18.5253 24.7048 18.1715L24.226 16.9042H20.9629L20.4789 18.174ZM36.7371 14.1432L46.4822 16.6516C46.784 16.727 47 17.0029 47 17.3151V22.2774C47 22.6574 46.6929 22.9671 46.313 22.9671C45.9331 22.9671 45.6234 22.6574 45.6234 22.2774V20.292H36.7371V40.6616H45.6235V25.3974C45.6235 25.0175 45.9332 24.7078 46.3131 24.7078C46.693 24.7078 47.0001 25.0175 47.0001 25.3974V41.3513C47.0001 41.7313 46.693 42.0382 46.3131 42.0382C31.1035 42.0382 15.8966 42.0382 0.68967 42.0382C0.309722 42.0382 9.15527e-05 41.7312 9.15527e-05 41.3513V38.6789C9.15527e-05 38.2963 0.309722 37.9893 0.68967 37.9893C1.06953 37.9893 1.37659 38.2963 1.37659 38.6789V40.6618H10.2629V20.2921H1.37659V35.559C1.37659 35.9389 1.06953 36.2485 0.68967 36.2485C0.309722 36.2485 9.15527e-05 35.9389 9.15527e-05 35.559V17.3152C9.15527e-05 17.0082 0.208287 16.7298 0.520488 16.6518L10.2629 14.1432C10.2629 10.8594 10.2629 7.57532 10.2629 4.29147C10.2629 3.97147 10.4893 3.68524 10.8119 3.6175L23.3465 0.978887C23.4402 0.958049 23.5391 0.955479 23.6405 0.976317L36.1413 3.60712C36.477 3.65394 36.7371 3.94273 36.7371 4.29147V14.1432ZM45.6234 18.9155V17.8461L36.7371 15.5587V18.9154H45.6234V18.9155ZM10.2629 18.9155V15.5588L1.37649 17.8461V18.9155H10.2629ZM35.3606 5.89186V4.8484L23.5 2.35033L11.642 4.8484V5.89186H35.3606ZM35.3606 7.26835H11.642V40.6618H17.653V36.4619C17.653 36.0819 17.9626 35.775 18.3426 35.775H28.66C29.0399 35.775 29.347 36.082 29.347 36.4619V40.6618H35.3605V7.26835H35.3606ZM28.66 28.7101H33.2294C33.6093 28.7101 33.9164 29.017 33.9164 29.3969V33.9664C33.9164 34.3463 33.6093 34.6559 33.2294 34.6559H28.66C28.28 34.6559 27.9704 34.3463 27.9704 33.9664V29.3969C27.9705 29.017 28.2801 28.7101 28.66 28.7101ZM32.5399 30.0865H29.3471V33.2769H32.5399V30.0865ZM28.66 21.5282H33.2294C33.6093 21.5282 33.9164 21.8351 33.9164 22.2177V26.7845C33.9164 27.167 33.6093 27.4741 33.2294 27.4741H28.66C28.28 27.4741 27.9704 27.167 27.9704 26.7845V22.2177C27.9705 21.835 28.2801 21.5282 28.66 21.5282ZM32.5399 22.9046H29.3471V26.0975H32.5399V22.9046ZM27.9705 37.1514H19.0295V40.6617H27.9705V37.1514ZM21.2153 28.7101H25.7846C26.1646 28.7101 26.4742 29.017 26.4742 29.3969V33.9664C26.4742 34.3463 26.1646 34.6559 25.7846 34.6559H21.2153C20.8353 34.6559 20.5284 34.3463 20.5284 33.9664V29.3969C20.5284 29.017 20.8354 28.7101 21.2153 28.7101ZM25.0977 30.0865H21.9049V33.2769H25.0977V30.0865ZM21.2153 21.5282H25.7846C26.1646 21.5282 26.4742 21.8351 26.4742 22.2177V26.7845C26.4742 27.167 26.1646 27.4741 25.7846 27.4741H21.2153C20.8353 27.4741 20.5284 27.167 20.5284 26.7845V22.2177C20.5284 21.835 20.8354 21.5282 21.2153 21.5282ZM25.0977 22.9046H21.9049V26.0975H25.0977V22.9046ZM13.7732 28.7101H18.3426C18.7225 28.7101 19.0295 29.017 19.0295 29.3969V33.9664C19.0295 34.3463 18.7224 34.6559 18.3426 34.6559H13.7732C13.3933 34.6559 13.0836 34.3463 13.0836 33.9664V29.3969C13.0836 29.017 13.3933 28.7101 13.7732 28.7101ZM17.653 30.0865H14.4602V33.2769H17.653V30.0865ZM38.8969 21.5282H43.4663C43.8462 21.5282 44.1532 21.8351 44.1532 22.2177V26.7845C44.1532 27.167 43.8461 27.4741 43.4663 27.4741H38.8969C38.517 27.4741 38.2073 27.167 38.2073 26.7845V22.2177C38.2073 21.835 38.517 21.5282 38.8969 21.5282ZM42.7767 22.9046H39.5838V26.0975H42.7767V22.9046ZM38.8969 28.7101H43.4663C43.8462 28.7101 44.1532 29.017 44.1532 29.3969V33.9664C44.1532 34.3463 43.8461 34.6559 43.4663 34.6559H38.8969C38.517 34.6559 38.2073 34.3463 38.2073 33.9664V29.3969C38.2073 29.017 38.517 28.7101 38.8969 28.7101ZM42.7767 30.0865H39.5838V33.2769H42.7767V30.0865ZM3.53629 21.5282H8.10566C8.48561 21.5282 8.79258 21.8351 8.79258 22.2177V26.7845C8.79258 27.167 8.48552 27.4741 8.10566 27.4741H3.53629C3.15634 27.4741 2.84671 27.167 2.84671 26.7845V22.2177C2.8468 21.835 3.15644 21.5282 3.53629 21.5282ZM7.41618 22.9046H4.2233V26.0975H7.41618V22.9046ZM3.53629 28.7101H8.10566C8.48561 28.7101 8.79258 29.017 8.79258 29.3969V33.9664C8.79258 34.3463 8.48552 34.6559 8.10566 34.6559H3.53629C3.15634 34.6559 2.84671 34.3463 2.84671 33.9664V29.3969C2.8468 29.017 3.15644 28.7101 3.53629 28.7101ZM7.41618 30.0865H4.2233V33.2769H7.41618V30.0865ZM13.7732 21.5282H18.3426C18.7225 21.5282 19.0295 21.8351 19.0295 22.2177V26.7845C19.0295 27.167 18.7224 27.4741 18.3426 27.4741H13.7732C13.3933 27.4741 13.0836 27.167 13.0836 26.7845V22.2177C13.0836 21.835 13.3933 21.5282 13.7732 21.5282ZM17.653 22.9046H14.4602V26.0975H17.653V22.9046ZM32.9978 16.0402C32.9978 16.7505 32.7115 17.3907 32.2458 17.8565C31.7826 18.3198 31.1399 18.6086 30.4321 18.6086C29.4928 18.6086 28.0563 18.6138 28.0538 18.6138C27.6765 18.6163 27.359 18.3066 27.3616 17.9295C27.3616 15.6004 27.3616 13.2741 27.3616 10.9478C27.3616 10.5678 27.6712 10.2609 28.0512 10.2609H30.0783C30.7106 10.2609 31.2857 10.5185 31.6994 10.9321C32.1157 11.3485 32.3733 11.9209 32.3733 12.5559C32.3733 13.0762 32.1989 13.5552 31.9075 13.9402C32.0272 14.0262 32.1417 14.1223 32.2458 14.2264C32.7116 14.6897 32.9978 15.3323 32.9978 16.0402ZM28.7381 13.4745C29.1856 13.4745 29.6307 13.4718 30.0783 13.4718C30.3307 13.4718 30.5596 13.3704 30.7262 13.2038C30.8928 13.0373 30.9942 12.8083 30.9942 12.5559C30.9942 12.3008 30.8928 12.0719 30.7262 11.9053C30.5597 11.7389 30.3307 11.6372 30.0783 11.6372H28.7381V13.4745ZM31.2726 16.8832C31.4886 16.6672 31.6213 16.3706 31.6213 16.0401C31.6213 15.7122 31.4885 15.4156 31.2726 15.1996C31.0566 14.9837 30.7599 14.851 30.4321 14.851H28.7381V17.2397C29.4226 17.2345 30.3749 17.2318 30.4321 17.2318C30.7599 17.2319 31.0593 17.0992 31.2726 16.8832ZM14.0021 10.9556C14.0021 10.5757 14.3119 10.2661 14.6917 10.2661C15.0716 10.2661 15.3786 10.5757 15.3786 10.9556V17.2502L17.1351 17.2423C17.5124 17.2423 17.8195 17.5495 17.8195 17.9294C17.8195 18.3066 17.5125 18.6137 17.1351 18.6137H14.7516C14.3483 18.6137 14.0021 18.3326 14.0021 17.9294V10.9556ZM22.6023 12.6001L21.4885 15.5248H23.7082L22.6023 12.6001Z" fill="#1C6A85"/>
</svg>
