<svg width="42" height="42" viewBox="0 0 42 42" fill="none" xmlns="http://www.w3.org/2000/svg">
<g clip-path="url(#clip0)">
<path d="M39.2528 7.26979C33.1155 5.67847 26.9421 3.20064 21.4001 0.104128C21.1516 -0.0346684 20.8486 -0.0347504 20.5999 0.104128C14.8986 3.2894 9.05888 5.63327 2.74716 7.26987C2.38541 7.36372 2.13275 7.6902 2.13275 8.06394V17.1197C2.13275 26.4331 6.66842 32.5939 10.4735 36.1222C14.5551 39.9069 19.2886 42.0001 21.0001 42.0001C22.7116 42.0001 27.445 39.9069 31.5266 36.1222C35.3316 32.5939 39.8674 26.4332 39.8674 17.1197V8.06385C39.8673 7.69012 39.6146 7.36364 39.2528 7.26979ZM30.4111 34.9189C28.1506 37.015 25.9538 38.3383 24.5089 39.0793C22.6781 40.0183 21.4074 40.3593 21 40.3593C20.5926 40.3593 19.322 40.0184 17.491 39.0793C16.0463 38.3383 13.8495 37.015 11.5889 34.9189C8.02349 31.6128 3.77329 25.8411 3.77329 17.1195V8.69599C9.84064 7.07177 15.4874 4.79762 21.0001 1.75829C26.3729 4.71625 32.3062 7.10548 38.2266 8.69574V17.1195H38.2267C38.2266 25.8411 33.9765 31.6128 30.4111 34.9189Z" fill="#1C6A85"/>
<path d="M36.4048 9.46385C31.2093 7.95341 26.1562 5.90173 21.386 3.3659C21.145 3.23769 20.856 3.23794 20.6151 3.3664C15.8377 5.91281 10.7846 7.96482 5.59615 9.46541C5.2453 9.56688 5.00372 9.88812 5.00372 10.2534V17.1196C5.00372 20.3251 5.61116 23.3671 6.80906 26.1612C8.00097 28.9413 9.77867 31.4785 12.0926 33.7026C13.7476 35.2932 15.6584 36.6948 17.6188 37.756C17.97 37.9461 19.7766 38.9047 20.851 39.103C20.9002 39.112 20.95 39.1166 20.9999 39.1166C21.0497 39.1166 21.0995 39.112 21.1488 39.103C22.2231 38.9047 24.0297 37.9461 24.3809 37.756C26.3411 36.6948 28.252 35.2932 29.9071 33.7026C32.2211 31.4786 33.9987 28.9414 35.1907 26.1612C36.3886 23.3672 36.996 20.3252 36.996 17.1196V10.2516C36.9961 9.8868 36.7551 9.56582 36.4048 9.46385ZM35.3555 17.1196C35.3555 23.1387 33.14 28.3199 28.7703 32.5196C27.2201 34.0094 25.4323 35.3212 23.6 36.3131C22.766 36.7645 21.6401 37.2909 20.9999 37.4561C20.3596 37.2909 19.2337 36.7645 18.3998 36.3131C16.5675 35.3211 14.7796 34.0094 13.2295 32.5196C8.85992 28.32 6.64435 23.1386 6.64435 17.1196V10.8676C11.5952 9.39355 16.4202 7.42792 21.0013 5.01826C25.5752 7.41775 30.3996 9.38264 35.3554 10.8649V17.1196H35.3555Z" fill="#1C6A85"/>
<path d="M14.1936 29.3922L14.1772 29.3746C13.8736 29.0419 13.358 29.0163 13.0228 29.318C12.6861 29.6211 12.6587 30.1397 12.9618 30.4765L12.9782 30.4941C13.1398 30.6711 13.3615 30.7612 13.5841 30.7612C13.7796 30.7612 13.9758 30.6917 14.1326 30.5506C14.4693 30.2476 14.4966 29.7289 14.1936 29.3922Z" fill="#1C6A85"/>
<path d="M18.618 33.1155C17.6299 32.4919 16.6784 31.7731 15.7902 30.9791C15.4525 30.677 14.9339 30.7061 14.6319 31.0439C14.33 31.3817 14.3591 31.9002 14.6969 32.2021C15.6528 33.0567 16.6775 33.8308 17.7426 34.503C17.8785 34.5887 18.0299 34.6296 18.1796 34.6296C18.4518 34.6296 18.718 34.4943 18.8741 34.247C19.1159 33.8639 19.0013 33.3572 18.618 33.1155Z" fill="#1C6A85"/>
<path d="M25.3392 17.1508V14.4502C25.3392 12.0576 23.3926 10.111 20.9998 10.111C18.6071 10.111 16.6605 12.0576 16.6605 14.4502V17.1508C15.6845 17.186 14.9012 17.9904 14.9012 18.9748V25.2723C14.9011 26.279 15.7202 27.098 16.7269 27.098H25.2729C26.2797 27.098 27.0988 26.279 27.0988 25.2723V18.9748C27.0988 17.9903 26.3154 17.1858 25.3392 17.1508ZM18.301 14.4502C18.301 12.9622 19.5117 11.7516 20.9999 11.7516C22.4879 11.7516 23.6985 12.9622 23.6985 14.4502V17.1491H18.301V14.4502H18.301ZM25.4581 25.2724C25.4581 25.3728 25.3733 25.4575 25.2729 25.4575H16.7268C16.6264 25.4575 16.5416 25.3728 16.5416 25.2724V18.9749H16.5416C16.5416 18.8745 16.6265 18.7898 16.7269 18.7898H17.4807H24.5188H25.2729C25.3733 18.7898 25.4581 18.8745 25.4581 18.9749V25.2724Z" fill="#1C6A85"/>
<path d="M20.9999 20.4783C20.3682 20.4783 19.853 20.9935 19.853 21.6252C19.853 21.9358 19.9779 22.2179 20.1796 22.4247V23.2276C20.1796 23.6805 20.5469 24.0479 20.9999 24.0479C21.453 24.0479 21.8202 23.6805 21.8202 23.2276V22.4247C22.0219 22.2178 22.1469 21.9358 22.1469 21.6252C22.1469 20.9935 21.6316 20.4783 20.9999 20.4783Z" fill="#1C6A85"/>
</g>
<defs>
<clipPath id="clip0">
<rect width="42" height="42" fill="white"/>
</clipPath>
</defs>
</svg>
