<svg width="48" height="48" viewBox="0 0 48 48" fill="none" xmlns="http://www.w3.org/2000/svg">
<path d="M11.2 31.6C8.55281 31.6 6.40002 33.7528 6.40002 36.4C6.40002 39.0472 8.55281 41.2 11.2 41.2C13.8472 41.2 16 39.0472 16 36.4C16 33.7528 13.8471 31.6 11.2 31.6ZM11.2 39.5999C9.43518 39.5999 8.00006 38.1647 8.00006 36.4C8.00006 34.6351 9.43527 33.2 11.2 33.2C12.9648 33.2 14.4 34.6352 14.4 36.4C14.4 38.1647 12.9648 39.5999 11.2 39.5999Z" fill="#1C6A85"/>
<path d="M38.4 31.6C35.7528 31.6 33.6 33.7528 33.6 36.4C33.6 39.0472 35.7528 41.2 38.4 41.2C41.0472 41.2 43.2 39.0472 43.2 36.4C43.2 33.7528 41.0472 31.6 38.4 31.6ZM38.4 39.5999C36.6351 39.5999 35.2 38.1647 35.2 36.4C35.2 34.6351 36.6352 33.2 38.4 33.2C40.1648 33.2 41.5999 34.6352 41.5999 36.4C41.5999 38.1647 40.1648 39.5999 38.4 39.5999Z" fill="#1C6A85"/>
<path d="M47.8728 27.1672L40.6728 15.9672C40.5256 15.7384 40.272 15.6 39.9999 15.6H31.2C30.7576 15.6 30.4 15.9584 30.4 16.3999V36.3999C30.4 36.8423 30.7576 37.1999 31.2 37.1999H34.4V35.5999H32V17.2H39.5631L46.4 27.8352V35.6H42.3999V37.2H47.1999C47.6423 37.2 47.9999 36.8424 47.9999 36.4V27.6C48 27.4472 47.956 27.2959 47.8728 27.1672Z" fill="#1C6A85"/>
<path d="M35.2 26.0001V20.4001H41.6001V18.8H34.4001C33.9577 18.8 33.6001 19.1585 33.6001 19.6V26.8C33.6001 27.2424 33.9577 27.6 34.4001 27.6H46.4001V26H35.2V26.0001Z" fill="#1C6A85"/>
<path d="M31.2 10H0.799969C0.358406 10 0 10.3584 0 10.8V36.4C0 36.8424 0.358406 37.2 0.799969 37.2H7.2V35.5999H1.60003V11.5999H30.4V35.5999H15.2V37.2H31.2C31.6424 37.2 32 36.8424 32 36.4V10.8C32 10.3584 31.6424 10 31.2 10Z" fill="#1C6A85"/>
<path d="M5.59999 32.4H0.799988V34.0001H5.59999V32.4Z" fill="#1C6A85"/>
<path d="M30.4 32.4H16.8V34.0001H30.4V32.4Z" fill="#1C6A85"/>
<path d="M47.2 32.4H44V34.0001H47.2V32.4Z" fill="#1C6A85"/>
<path d="M31.2 13.2H3.19995V14.8H31.2V13.2Z" fill="#1C6A85"/>
<path d="M12 35.6H10.4V37.2H12V35.6Z" fill="#1C6A85"/>
<path d="M39.2 35.6H37.6V37.2H39.2V35.6Z" fill="#1C6A85"/>
<path d="M14.4 6.79993H3.19995V8.39996H14.4V6.79993Z" fill="#1C6A85"/>
<path d="M1.60003 6.79993H0V8.39996H1.60003V6.79993Z" fill="#1C6A85"/>
</svg>
